<?xml version="1.0" encoding="utf-8"?>
<!-- Generator: Adobe Illustrator 28.0.0, SVG Export Plug-In . SVG Version: 6.00 Build 0)  -->
<svg version="1.1" id="Layer_1" xmlns="http://www.w3.org/2000/svg" xmlns:xlink="http://www.w3.org/1999/xlink" x="0px" y="0px"
	 viewBox="0 0 144 144" style="enable-background:new 0 0 144 144;" xml:space="preserve">
<style type="text/css">
	.st0{fill:#235FCA;}
	.st1{fill:#FFFFFF;}
</style>
<rect class="st0" width="144" height="144"/>
<g id="Layer_2_00000018927063950916233490000006983327208610330536_">
	<g id="Layer_1-2">
		<path class="st1" d="M119.9,28.3c-10.1,4.9-17.7,11.7-22.5,19.9c0,0.1-0.1,0.1-0.1,0.3c-6.9-12.1-18.5-20.6-31.9-23.7l0,0
			c-10.6-2.3-21.7-1.2-31.4,3.4c-4.3,1.9-8.2,4.4-11.8,7.3l0,0c-5.9,4.9-10.4,11.2-13.4,18.4l0,0C6.4,59.7,5.1,66.3,5,73.4
			c0,1.1,0,2.3,0,3.4l0,0c-0.1,14.7,0,29.2,0,43.9v1.5h13.4v-1.8c0-4.4,0-8.9,0-13.3c10.1,10.8,25.2,17,41.7,15.4
			c10.1-1.1,19.1-4.9,26.7-11.7c1.2-1.1,2.5-2.2,3.8-3.6l0,0v6.2c0,2.5,0,4.8,0,7.3c0,0.3,0,0.7,0,1h13.4v-1.4c0-15.5,0-31,0-46.6
			l0,0c0-0.3,0-0.7,0-1l0,0c0-19.1,16.3-35.8,36.1-35.8l0,0V23.5C134.7,23.3,126.1,25.3,119.9,28.3z M90.6,75
			c-1,19.2-16.7,34.4-36.1,34.6c-18.8,0-34.6-14.8-36.2-33.2c-0.1-1-0.1-1.9-0.1-2.9C18,53.3,34.1,37.2,54.4,37
			c19.7-0.3,36.2,16,36.2,35.9C90.7,73.6,90.6,74.3,90.6,75z"/>
		<rect x="90.7" y="121.8" class="st1" width="13.4" height="0.4"/>
		<circle class="st1" cx="97.3" cy="27.8" r="6.6"/>
	</g>
</g>
</svg>
