<?xml version="1.0" encoding="utf-8"?>
<!-- Generator: Adobe Illustrator 28.0.0, SVG Export Plug-In . SVG Version: 6.00 Build 0)  -->
<svg version="1.1" id="Layer_1" xmlns="http://www.w3.org/2000/svg" xmlns:xlink="http://www.w3.org/1999/xlink" x="0px" y="0px"
	 viewBox="0 0 932.2 330" style="enable-background:new 0 0 932.2 330;" xml:space="preserve">
<g id="Layer_2_00000119826735645471073100000015228950759006460341_">
	<g id="Layer_1-2">
		<path d="M292.6,292.5h-15.6v36.7H292c4,0.2,7.9-1,11.2-3.3c4.1-3.1,6.4-8.3,6.4-14.8C309.5,299.9,302.7,292.5,292.6,292.5z
			 M291.3,321.5H286v-21.4h5.4c5.7,0,8.9,4.3,8.9,11S297.3,321.5,291.3,321.5L291.3,321.5z"/>
		<polygon points="365.2,313.6 381.3,313.6 381.3,306.6 365.2,306.6 365.2,300 383.9,300 383.9,292.5 356.1,292.5 356.1,329.2 
			384.2,329.2 384.2,321.5 365.2,321.5 		"/>
		<path d="M447.7,306.6c-5.5-1.2-8.3-1.9-8.3-4.4c0-2.1,2.1-3.4,5.3-3.4c3.4,0,5.5,1.6,5.9,4.4h8.9c-0.4-7.7-6.5-11.3-14.5-11.3
			c-8.2,0-14.6,3.4-14.6,11.3c0,7.7,6.7,9.6,13.1,11.1c5,1.2,8,1.9,8,4.8s-2.9,3.8-5.9,3.8c-4.4,0-6.8-1.5-7.2-5.2h-9.1
			c0.2,8.1,6.6,12.4,16.4,12.4c8.5,0,15-4.2,15-11.9C460.7,310.3,454.5,308.2,447.7,306.6z"/>
		<rect x="507.5" y="292.5" width="9.1" height="36.7"/>
		<path d="M582.7,316.2h6.9v0.1c-0.4,3.2-3.2,6.4-8,6.4c-5.7,0-9.2-5-9.2-11.7s3-11.7,9.1-11.7c4,0,6.5,2.3,7.1,5.2h8.8
			c-1.2-7.7-6.8-12.7-16.3-12.7c-4.7-0.2-9.2,1.6-12.6,4.9c-3.6,3.9-5.6,9-5.4,14.3c-0.2,5.1,1.6,10,4.9,13.9
			c3.3,3.4,7.8,5.3,12.5,5.1c4.4,0,8-1.5,10.4-5.2h0.1l0.5,4.4h6.4v-19.7h-15.3V316.2z"/>
		<path d="M668.3,309.9c0,1.3,0.1,5.7,0.1,5.7h-0.1c0,0-1.9-3.6-2.5-4.7l-10.9-18.4h-9.1v36.7h8.9v-17.1c0-1.3-0.1-6-0.1-6h0.1
			c0,0,2,3.9,2.6,4.9l10.7,18.1h9.1v-36.7h-8.9L668.3,309.9z"/>
		<path d="M332.6,37.7c-60.6,20.6-93.1,86.4-72.6,147c17.5,51.6,68.6,84.1,122.8,78c23.1-2.4,45-11.9,62.5-27.1c3-2.5,5.8-5.2,9-8.2
			V261H486v-3.7c0-36.6,0-73.2,0-109.8c0-15.9-3.2-31.7-9.5-46.3C452.8,46,390.8,18.3,332.6,37.7z M370,232.1
			c-47.1-0.2-85.1-38.5-84.9-85.6c0,0,0,0,0,0c0.1-45.9,38.2-83.5,84.9-83.7c46.8-0.2,84.8,38,84.5,85
			C454.3,194.3,416.2,232.3,370,232.1z"/>
		<path d="M229.5,124.5c-15.3-73-93.2-113.4-161.4-82.1C23.8,62.8,1.2,99,0.3,147.8c-0.7,36.6-0.1,73.2-0.1,109.8v3.5h31.4v-4.1
			c0-36.2-0.1-72.4,0-108.7c-0.1-19.7,6.7-38.8,19.3-54c24.7-30.4,66.3-39.3,99.6-23.6c32.9,15.5,49.7,42.2,50.1,78.4
			s0.1,72.2,0.1,108.4v3.5H232v-3.7c0-36.4,0.1-72.8-0.1-109.2C231.9,140.2,231.1,132.3,229.5,124.5z"/>
		<path d="M574,42.7c-42.4,21.9-64.8,56.9-65.8,104.5c-0.8,36.8-0.3,73.6-0.3,110.4v3.5h31.6v-4.1c0-36.2-0.1-72.4,0.1-108.6
			c0-5.8,0.5-11.6,1.6-17.2C547.3,97,576,69,610.4,63.7c4.4-0.7,8.9-1,13.4-1.5V31.3c-0.7,0-1.2-0.1-1.6-0.1
			C605.3,31.5,589,34.9,574,42.7z"/>
		<path d="M646.2,261.1h31.1V62.9h-31.1V261.1z"/>
		<path d="M661.8,0c-8.4,0-15.6,7.1-15.6,15.3c0,9.1,6.6,15.8,15.6,15.8c8.5,0.1,15.5-6.7,15.7-15.2c0-0.2,0-0.4,0-0.6
			C677.5,7.1,670.2,0,661.8,0z"/>
		<path d="M931.1,130.8H732.8c9.1-45.8,53.6-75.6,99.4-66.5c21.5,4.3,40.5,16.7,53,34.6h36.6C895,40.3,825.9,14.6,767.4,41.3
			c-41.5,18.9-68.1,60.3-68.1,105.9c0,4.9,0.3,9.8,0.9,14.6h198.9c-8.1,46-51.9,76.8-97.9,68.7c-22.9-4-43.2-17.3-56-36.8H709
			c25.7,59,94.4,85.9,153.3,60.2C910.3,233,938.5,182.6,931.1,130.8L931.1,130.8z"/>
	</g>
</g>
</svg>
